<?xml version="1.0" standalone="no"?><!DOCTYPE svg PUBLIC "-//W3C//DTD SVG 1.1//EN" "http://www.w3.org/Graphics/SVG/1.1/DTD/svg11.dtd"><svg class="icon" height="512" viewBox="0 0 1024 1024" version="1.1" xmlns="http://www.w3.org/2000/svg"><path d="M267.358 331.145c0.288-38.877 11.436-74.47 33.133-106.613 21.096-31.25 48.835-55.087 82.821-71.474 18.633-8.985 38.477-14.010 58.942-16.493 22.681-2.752 44.321 2.186 64.765 11.307 58.589 26.138 96.727 71.037 115.899 131.666 14.998 47.426 8.839 93.203-16.717 135.83-23.354 38.958-55.748 68.454-97.108 87.538-30.833 14.226-63.161 17.346-95.934 8.656-53.581-14.207-95.962-44.084-123.579-92.91-15.288-27.025-22.332-56.418-22.221-87.505z" fill="#e97118" /><path d="M493.162 558.718c4.355 0.014 8.765 0.539 13.050 1.347 9.553 1.801 13.247 7.208 10.223 16.459-2.623 8.021-5.893 16.017-10.145 23.284-12.195 20.847-23.704 41.961-31.564 64.898-12.575 36.7-17.171 74.304-12.040 112.817 1.988 14.918 5.391 29.647 8.062 44.476 0.593 3.289 1.053 6.635 1.172 9.969 0.307 8.613-3.556 14.195-12.086 15.938-7.030 1.438-14.295 2.060-21.483 2.345-33.334 1.314-66.519-1.124-99.685-4.178-25.816-2.377-51.682-4.224-77.503-6.556-25.432-2.297-50.819-5.094-76.258-7.312-15.645-1.364-30.795-4.808-45.669-9.579-18.279-5.863-23.671-14.197-19.265-32.933 3.943-16.768 9.242-33.251 14.603-49.644 10.572-32.319 20.521-64.905 32.706-96.62 17.098-44.504 49.837-71.963 96.979-80.761 14.242-2.658 28.941-3.409 43.466-3.879 28.243-0.915 56.512-1.015 84.771-1.453 0.003 0.442 67.114 1.273 100.666 1.382z" fill="#e97118" /><path d="M629.25 860.804c-7.627 8.093-15.132 16.077-22.661 24.037-6.894 7.287-16.625 8.844-25.247 3.932-1.722-0.982-3.287-2.335-4.709-3.736-8.978-8.843-17.904-17.74-26.832-26.635-6.002-5.98-8.377-13.082-5.396-21.173 1.165-3.161 3.357-6.175 5.738-8.615 7.237-7.416 14.775-14.539 22.252-21.717 1.126-1.080 1.303-1.832 0.628-3.364-4.172-9.463-8.212-18.986-12.159-28.546-0.739-1.79-1.592-2.407-3.558-2.384-10.215 0.116-20.444-0.261-30.645 0.142-10.499 0.414-18.322-7.417-20.828-15.772-0.843-2.809-1.268-5.843-1.301-8.78-0.14-12.453-0.125-24.907-0.037-37.359 0.064-9.022 3.63-16.292 11.295-21.347 2.898-1.912 6.108-2.661 9.537-2.659 10.738 0.006 21.478-0.053 32.214 0.055 1.826 0.020 2.587-0.611 3.227-2.202 3.362-8.356 6.807-16.678 10.28-24.987 0.773-1.846 1.776-3.595 2.735-5.512-0.441-0.461-0.872-0.958-1.348-1.408-7.43-7.012-14.856-14.028-22.301-21.023-9.228-8.669-9.569-21.066-0.695-30.11 8.931-9.102 17.917-18.15 26.956-27.145 8.875-8.832 20.734-8.714 29.53 0.245 7.315 7.448 14.584 14.943 21.816 22.473 1.075 1.118 1.813 1.328 3.359 0.647 9.462-4.174 18.987-8.212 28.545-12.161 1.776-0.734 2.422-1.569 2.398-3.548-0.119-10.215 0.26-20.444-0.143-30.645-0.414-10.5 7.417-18.322 15.771-20.829 2.809-0.843 5.843-1.269 8.78-1.301 12.526-0.139 25.056-0.15 37.583-0.028 8.932 0.087 16.124 3.696 21.125 11.285 1.91 2.9 2.661 6.108 2.659 9.537-0.006 10.738 0.053 21.478-0.055 32.214-0.020 1.827 0.613 2.582 2.204 3.223 10.207 4.117 20.376 8.33 30.558 12.511 0.093 0.283 0.188 0.564 0.28 0.847 0.46-0.677 0.842-1.428 1.396-2.018 6.991-7.449 13.996-14.886 21.020-22.305 6.905-7.293 16.627-8.843 25.248-3.917 1.722 0.983 3.283 2.341 4.703 3.742 8.98 8.842 17.915 17.731 26.838 26.63 5.997 5.98 8.379 13.084 5.378 21.177-1.173 3.16-3.359 6.176-5.741 8.615-7.239 7.413-14.776 14.538-22.263 21.707-1.155 1.104-1.244 1.875-0.587 3.371 4.16 9.47 8.205 18.99 12.147 28.552 0.742 1.802 1.618 2.389 3.569 2.367 10.215-0.112 20.443 0.252 30.645-0.137 10.438-0.398 18.133 7.247 20.761 15.569 0.904 2.862 1.315 5.984 1.352 8.995 0.146 12.452 0.129 24.907 0.038 37.359-0.067 9.022-3.639 16.289-11.308 21.339-2.9 1.91-6.11 2.652-9.54 2.65-10.664-0.007-21.328 0.063-31.99-0.060-2-0.022-2.824 0.657-3.526 2.428-3.21 8.095-6.538 16.145-9.894 24.18-0.857 2.051-1.973 3.995-3.243 6.533 0.489 0.321 1.19 0.648 1.725 1.151 7.451 6.989 14.879 14.002 22.314 21.009 8.508 8.017 9.621 19.88 1.777 28.39-9.493 10.3-19.383 20.276-29.629 29.825-8.546 7.966-19.737 7.124-27.977-1.248-7.375-7.494-14.688-15.051-21.962-22.642-1.103-1.152-1.873-1.249-3.371-0.592-9.47 4.161-18.99 8.206-28.552 12.149-1.8 0.743-2.391 1.616-2.369 3.567 0.113 10.215-0.252 20.443 0.138 30.645 0.398 10.438-7.243 18.133-15.567 20.762-2.861 0.904-5.984 1.316-8.994 1.352-12.526 0.145-25.056 0.154-37.583 0.030-8.931-0.089-16.122-3.702-21.116-11.296-1.908-2.901-2.653-6.11-2.651-9.539 0.007-10.664-0.062-21.328 0.059-31.99 0.023-1.996-0.653-2.821-2.424-3.529-8.363-3.339-16.679-6.803-24.986-10.281-1.778-0.75-3.455-1.729-5.386-2.706zM795.349 729.617c-0.077-49.81-40.582-90.288-90.397-90.331-49.953-0.045-90.612 40.694-90.499 90.677 0.112 49.872 40.795 90.323 90.733 90.218 49.732-0.105 90.238-40.791 90.162-90.563z" fill="#e97118" /></svg>